<svg xmlns="http://www.w3.org/2000/svg" width="400" height="520" viewBox="0 0 400 520" fill="none">
  <!-- Background -->
  <rect width="400" height="520" fill="white"/>
  
  <!-- Top section with logo and title -->
  <rect width="400" height="140" fill="white" stroke="#e0e0e0" stroke-width="1"/>
  
  <!-- Red accent shape -->
  <path d="M 0 120 L 60 80 L 60 140 Z" fill="#E63946"/>
  
  <!-- QRIS Header -->
  <text x="20" y="35" font-family="Arial, sans-serif" font-size="12" font-weight="bold" fill="#000">QRIS</text>
  <text x="60" y="35" font-family="Arial, sans-serif" font-size="10" fill="#666">QR Code Standar</text>
  <text x="60" y="48" font-family="Arial, sans-serif" font-size="10" fill="#666">Pembayaran Nasional</text>
  
  <!-- GPN Logo placeholder -->
  <rect x="320" y="15" width="60" height="60" rx="8" fill="#f0f0f0" stroke="#ddd" stroke-width="1"/>
  <text x="350" y="50" text-anchor="middle" font-family="Arial, sans-serif" font-size="10" font-weight="bold" fill="#E63946">GPN</text>
  
  <!-- Merchant name -->
  <text x="200" y="85" text-anchor="middle" font-family="Arial, sans-serif" font-size="14" font-weight="bold" fill="#1a1a1a">TOKO KELONTONG</text>
  <text x="200" y="102" text-anchor="middle" font-family="Arial, sans-serif" font-size="11" fill="#666">NMID: ID1026533353425</text>
  
  <!-- Terminal ID -->
  <text x="200" y="125" text-anchor="middle" font-family="Arial, sans-serif" font-size="13" font-weight="bold" fill="#1a1a1a">A01</text>
  
  <!-- QR Code Area -->
  <rect x="30" y="160" width="280" height="280" fill="white" stroke="#e0e0e0" stroke-width="2" rx="4"/>
  
  <!-- QR Code Pattern (simplified realistic pattern) -->
  <g fill="#000">
    <!-- Position markers -->
    <rect x="40" y="170" width="50" height="50"/>
    <rect x="45" y="175" width="40" height="40" fill="white"/>
    <rect x="50" y="180" width="30" height="30" fill="#000"/>
    
    <rect x="310" y="170" width="50" height="50"/>
    <rect x="315" y="175" width="40" height="40" fill="white"/>
    <rect x="320" y="180" width="30" height="30" fill="#000"/>
    
    <rect x="40" y="380" width="50" height="50"/>
    <rect x="45" y="385" width="40" height="40" fill="white"/>
    <rect x="50" y="390" width="30" height="30" fill="#000"/>
    
    <!-- Data area - QR pattern -->
    <rect x="105" y="170" width="8" height="8"/>
    <rect x="120" y="170" width="8" height="8"/>
    <rect x="135" y="170" width="8" height="8"/>
    <rect x="150" y="170" width="8" height="8"/>
    <rect x="165" y="170" width="8" height="8"/>
    <rect x="180" y="170" width="8" height="8"/>
    <rect x="195" y="170" width="8" height="8"/>
    <rect x="210" y="170" width="8" height="8"/>
    <rect x="225" y="170" width="8" height="8"/>
    <rect x="240" y="170" width="8" height="8"/>
    <rect x="255" y="170" width="8" height="8"/>
    <rect x="270" y="170" width="8" height="8"/>
    <rect x="285" y="170" width="8" height="8"/>
    
    <!-- More random pattern -->
    <rect x="105" y="190" width="8" height="8"/>
    <rect x="125" y="190" width="8" height="8"/>
    <rect x="145" y="190" width="8" height="8"/>
    <rect x="165" y="190" width="8" height="8"/>
    <rect x="185" y="190" width="8" height="8"/>
    <rect x="205" y="190" width="8" height="8"/>
    <rect x="225" y="190" width="8" height="8"/>
    <rect x="245" y="190" width="8" height="8"/>
    <rect x="265" y="190" width="8" height="8"/>
    <rect x="285" y="190" width="8" height="8"/>
    
    <rect x="110" y="210" width="8" height="8"/>
    <rect x="130" y="210" width="8" height="8"/>
    <rect x="150" y="210" width="8" height="8"/>
    <rect x="170" y="210" width="8" height="8"/>
    <rect x="190" y="210" width="8" height="8"/>
    <rect x="210" y="210" width="8" height="8"/>
    <rect x="230" y="210" width="8" height="8"/>
    <rect x="250" y="210" width="8" height="8"/>
    <rect x="270" y="210" width="8" height="8"/>
    
    <rect x="105" y="235" width="8" height="8"/>
    <rect x="128" y="235" width="8" height="8"/>
    <rect x="151" y="235" width="8" height="8"/>
    <rect x="174" y="235" width="8" height="8"/>
    <rect x="197" y="235" width="8" height="8"/>
    <rect x="220" y="235" width="8" height="8"/>
    <rect x="243" y="235" width="8" height="8"/>
    <rect x="266" y="235" width="8" height="8"/>
    <rect x="289" y="235" width="8" height="8"/>
    
    <rect x="115" y="260" width="8" height="8"/>
    <rect x="140" y="260" width="8" height="8"/>
    <rect x="165" y="260" width="8" height="8"/>
    <rect x="190" y="260" width="8" height="8"/>
    <rect x="215" y="260" width="8" height="8"/>
    <rect x="240" y="260" width="8" height="8"/>
    <rect x="265" y="260" width="8" height="8"/>
    
    <rect x="110" y="290" width="8" height="8"/>
    <rect x="135" y="290" width="8" height="8"/>
    <rect x="160" y="290" width="8" height="8"/>
    <rect x="185" y="290" width="8" height="8"/>
    <rect x="210" y="290" width="8" height="8"/>
    <rect x="235" y="290" width="8" height="8"/>
    <rect x="260" y="290" width="8" height="8"/>
    <rect x="285" y="290" width="8" height="8"/>
    
    <rect x="120" y="315" width="8" height="8"/>
    <rect x="145" y="315" width="8" height="8"/>
    <rect x="170" y="315" width="8" height="8"/>
    <rect x="195" y="315" width="8" height="8"/>
    <rect x="220" y="315" width="8" height="8"/>
    <rect x="245" y="315" width="8" height="8"/>
    <rect x="270" y="315" width="8" height="8"/>
    <rect x="295" y="315" width="8" height="8"/>
  </g>
  
  <!-- Bottom section -->
  <text x="200" y="475" text-anchor="middle" font-family="Arial, sans-serif" font-size="12" font-weight="bold" fill="#1a1a1a">SATU QRIS UNTUK SEMUA</text>
  <text x="200" y="492" text-anchor="middle" font-family="Arial, sans-serif" font-size="10" fill="#666">Cek aplikasi penyelenggara di: www.aspi-qris.id</text>
  
  <!-- Footer info -->
  <text x="20" y="515" font-family="Arial, sans-serif" font-size="9" fill="#999">Dicetak: 93600914</text>
  <text x="200" y="515" text-anchor="middle" font-family="Arial, sans-serif" font-size="9" fill="#999">Versi cetak: v0.0.2026.06.15</text>
</svg>